<!--?xml version="1.0" encoding="utf-8"?-->

<svg xmlns="http://www.w3.org/2000/svg" xmlns:xlink="http://www.w3.org/1999/xlink" width="166.9px" height="182.264px" viewBox="0 0 166.9 182.264">

	<g>
		<path fill="#F79321" stroke="#000000" stroke-width="1.5" d="M94.883,71.106l0.625,18.625l1.563,0.156l1.031,6
			c0,0,55.172,79.983,56.078,80.219c0.905,0.234,1.188,0.422,2.483,2.266s0.234,2.063,0.234,2.063s-2.156,0.905-3.375,1.063
			s-0.625-0.828-0.625-1.313c0-0.485-0.392-1.906-0.392-1.906L94.571,97.434l-0.609-4.72l-0.266-0.28c0,0-0.813-0.281-0.891-0.297
			c-0.078-0.017-0.298-0.031-0.298-0.031l-0.151,0.518l-2.313,67.906l-0.031,0.152l1.502,3.255l-1.408,1.502l-5.885-0.688
			l0.126-2.129l2.598-0.626l3.13-66.037l-0.125-0.467c0,0,0,0-0.438-0.751c-0.438-0.751-0.563-1.158-1.629-1.659
			c-1.064-0.501-1.181,0.391-1.181,0.391s-58.104,80.866-58.303,81.51c-0.199,0.643,0.199,2.305,0.199,2.305s-1.824,0.82-3.949-0.18
			s-1-2.375-0.625-3s3.74-2.126,3.74-2.126l55.76-81.624l0.895-4.662l1.48-0.588l0.629-17.029l0.047-1.063l0.016-0.313
			c0-0.609-1.438-1.156-1.438-1.156L38.386,39.408l-2.618-1.078c0,0-0.309,0.771-1.541-0.154c-1.232-0.923-4.928-2.309-4.928-2.309
			s-2.771,1.541-3.542,1.695c-0.77,0.151-23.405-12.478-23.405-12.478s-4.158-1.539,0.923-11.087
			C8.358,4.45,12.669,0.601,13.285,0.754c0.616,0.155,1.386,0.771,1.386,0.771l23.716,12.473l0.77,3.852l4.466,4.003l-0.309,0.924
			l85.16,47.738h2.309l1.693-2.465l-3.693-1.693l-0.463,1.231l-10.627-6.314c0,0,0.924-4.619,3.695-6.468l9.395,5.082
			c0,0,1.385,0.924,1.232,1.848c0,0,4.004,2.465,4.616,2.771c0.617,0.309,1.078,2.466,1.078,2.466l7.701,3.694l2.619-0.152
			c0,0-0.309,1.694-1.695,3.079c-1.387,1.388-2.928,1.54-2.928,0.925c0-0.617,0.77-0.154,0-1.078s-0.77-1.388-3.387-2.618
			c-2.619-1.231-4.313-2.465-4.313-2.465l-1.385,0.617l-0.926,1.386l-1.076,1.849c0,0,1.693,0.924,1.848,2.311
			c0.154,1.385,0,2.154,0,2.154l10.627,6.314c0,0,1.076,0.153,0.771,0.77c-0.31,0.616,17.246,10.78,17.246,10.78l3.08,0.309
			c0,0-0.31,0.923-1.849,3.232c-1.541,2.311-3.233,4.928-3.233,4.928l-0.461-1.847l-17.711-9.703l-2.002,0.154l-0.923,0.308
			l-10.317-6.467c0,0-3.078,3.079-4.004,2.465c-0.371-0.248-14.462-8.111-31.199-17.438L94.883,71.106" id="path-0" style="position: relative;"></path>
		<path fill="#F79321" stroke="#000000" stroke-width="1.5" d="M38.432,18.722c0,0-6.501,15.227-8.641,15.909" id="path-1" style="position: relative;"></path>
		<path fill="#F79321" stroke="#000000" stroke-width="1.5" d="M42.539,23.769c0,0-5.561,12.23-6.843,13.259" id="path-2" style="position: relative;"></path>
		<path fill="#F79321" stroke="#000000" stroke-width="1.5" d="M133.749,77.46c0,0-2.449,6.007-3.635,6.796" id="path-3" style="position: relative;"></path>
		<path fill="#F79321" stroke="#000000" stroke-width="1.5" d="M144.415,84.334c0,0-0.262,2.02-1.721,3.668
			c-1.459,1.65-2.092,1.713-2.092,1.713" id="path-4" style="position: relative;"></path>
	</g>

</svg>
